HIERARCHY
ROOT Hips
{
	OFFSET 0.00000 0.00000 0.00000
	CHANNELS 6 Xposition Yposition Zposition Zrotation Yrotation Xrotation 
	JOINT LHipJoint
	{
		OFFSET 0 0 0
		CHANNELS 3 Zrotation Yrotation Xrotation
		JOINT LeftHip
		{
			OFFSET 1.43652 -1.81092 0.91346
			CHANNELS 3 Zrotation Yrotation Xrotation
			JOINT LeftKnee
			{
				OFFSET 2.45984 -6.75837 0.00000
				CHANNELS 3 Zrotation Yrotation Xrotation
				JOINT LeftAnkle
				{
					OFFSET 2.63718 -7.24559 0.00000
					CHANNELS 3 Zrotation Yrotation Xrotation
					JOINT LeftToe
					{
						OFFSET 0.19690 -0.54098 2.12239
						CHANNELS 3 Zrotation Yrotation Xrotation
						End Site
						{
							OFFSET 0.00000 -0.00000 1.10116
						}
					}
				}
			}
		}
	}
	JOINT RHipJoint
	{
		OFFSET 0 0 0
		CHANNELS 3 Zrotation Yrotation Xrotation
		JOINT RightHip
		{
			OFFSET -1.35116 -1.81092 0.91345
			CHANNELS 3 Zrotation Yrotation Xrotation
			JOINT RightKnee
			{
				OFFSET -2.55576 -7.02189 0.00000
				CHANNELS 3 Zrotation Yrotation Xrotation
				JOINT RightAnkle
				{
					OFFSET -2.61938 -7.19669 0.00000
					CHANNELS 3 Zrotation Yrotation Xrotation
					JOINT RightToe
					{
						OFFSET -0.32509 -0.89318 2.23646
						CHANNELS 3 Zrotation Yrotation Xrotation
						End Site
						{
							OFFSET -0.00000 -0.00000 1.19625
						}
					}
				}
			}
		}
	}
	JOINT lowerback
	{
		OFFSET 0 0 0
		CHANNELS 3 Zrotation Yrotation Xrotation
		JOINT Chest
		{
			OFFSET 0.05193 2.08077 -0.11958
			CHANNELS 3 Zrotation Yrotation Xrotation
			JOINT Chest2
			{
				OFFSET 0.04960 2.08447 0.01967
				CHANNELS 3 Zrotation Yrotation Xrotation
				JOINT lowerneck
				{
					OFFSET 0 0 0
					CHANNELS 3 Zrotation Yrotation Xrotation
					JOINT Neck
					{
						OFFSET -0.10699 1.82066 0.27584
						CHANNELS 3 Zrotation Yrotation Xrotation
						JOINT Head
						{
							OFFSET 0.14949 1.84747 -0.32279
							CHANNELS 3 Zrotation Yrotation Xrotation
							End Site
							{
								OFFSET 0.04969 1.88916 -0.14562
							}
						}
					}
				}
				JOINT LeftCollar
				{
					OFFSET 0 0 0
					CHANNELS 3 Zrotation Yrotation Xrotation
					JOINT LeftShoulder
					{
						OFFSET 3.73629 1.27211 -0.12847
CHANNELS 3 Zrotation Xrotation Yrotation
						JOINT LeftElbow
						{
OFFSET 0 -5.109950 0.000000
CHANNELS 3 Zrotation Xrotation Yrotation
							JOINT LeftWrist
							{
OFFSET 0 -3.212070 0.000000
CHANNELS 3 Zrotation Xrotation Yrotation
								JOINT lhand
								{
									OFFSET 0 0 0
CHANNELS 3 Zrotation Xrotation Yrotation
									JOINT LFingers
									{
OFFSET 0 -0.633490 0.000000
CHANNELS 3 Zrotation Xrotation Yrotation
										End Site
										{
OFFSET 0 -0.510740 0.000000
										}
									}
								}
								JOINT LThumb
								{
OFFSET 0 0.000000 0.000000
CHANNELS 3 Zrotation Xrotation Yrotation
									End Site
									{
OFFSET 0 -0.518530 0.518530
									}
								}
							}
						}
					}
				}
				JOINT RightCollar
				{
					OFFSET 0 0 0
					CHANNELS 3 Zrotation Yrotation Xrotation
					JOINT RightShoulder
					{
						OFFSET -3.70251 1.29541 -0.35354
CHANNELS 3 Zrotation Xrotation Yrotation
						JOINT RightElbow
						{
OFFSET 0 -5.251090 0.000000
CHANNELS 3 Zrotation Xrotation Yrotation
							JOINT RightWrist
							{
OFFSET 0 -3.283640 0.000000
CHANNELS 3 Zrotation Xrotation Yrotation
								JOINT rhand
								{
									OFFSET 0 0 0
CHANNELS 3 Zrotation Xrotation Yrotation
									JOINT RFingers
									{
OFFSET 0 -0.599740 0.000000
CHANNELS 3 Zrotation Xrotation Yrotation
										End Site
										{
OFFSET 0 -0.483530 0.000000
										}
									}
								}
								JOINT RThumb
								{
OFFSET 0 0.000000 0.000000
CHANNELS 3 Zrotation Xrotation Yrotation
									End Site
									{
OFFSET 0 -0.490910 0.490910
									}
								}
							}
						}
					}
				}
			}
		}
	}
}
MOTION
Frames: 6
Frame Time: 0.008333333333333333
7.167200 17.858500 -12.666700 -3.279800 -26.658700 8.150700 0.000000 0.000000 0.000000 -10.551900 -3.141800 -21.588800 1.343100 7.337500 20.719100 -0.103800 5.705900 -2.188100 0.001000 -0.206100 -0.566300 0.000000 0.000000 0.000000 22.941500 4.505700 -6.782200 -1.228700 -7.029900 19.804000 -0.664300 -8.506500 -20.760300 -0.038200 -1.260900 3.466900 0.379900 -0.871000 4.135600 2.660500 -1.059600 -1.162800 2.606700 -0.509800 -3.475000 -17.364200 -12.990500 -8.948100 16.125000 -17.982900 13.337300 5.952800 -8.384500 8.714400 0.000000 -0.000000 0.000000 0.309800 -1.406500 -61.889500 68.292700 -58.142400 41.318100 30.718600 -24.551400 -40.857100 0.000000 0.000000 0.000000 -7.125000 0.000000 0.000000 -10.141700 74.956600 7.178800 0.000000 -0.000000 0.000000 -9.201200 -11.631800 80.647700 -63.896200 -57.261800 -37.601200 -23.176200 1.271000 -11.900500 0.000000 0.000000 0.000000 7.125000 0.000000 -0.000000 2.796100 17.078000 1.853900
7.147317 17.854306 -12.661135 -3.314208 -26.856644 8.111629 0.000000 0.000000 0.000000 -10.264782 -3.521024 -20.921076 1.339186 7.327173 20.688372 -0.061551 4.533819 -2.829775 0.005121 -0.460559 -1.265525 0.000000 0.000000 0.000000 23.008815 4.562645 -6.701911 -1.238496 -7.056964 19.884400 -0.682187 -8.371226 -20.818863 -0.041477 -1.314483 3.614538 0.594350 -0.891742 3.772210 2.699097 -1.082299 -1.191959 2.520017 -0.526307 -3.302361 -17.367892 -12.940856 -9.021573 15.750300 -17.859601 13.595143 5.844227 -8.344971 8.750822 0.000000 0.000000 0.000000 0.169468 -1.074957 -62.149438 67.436793 -57.985876 40.591843 30.221641 -24.188064 -41.681641 0.000000 0.000000 0.000000 -7.125000 0.000000 0.000000 -12.362479 75.555599 8.917631 0.000000 0.000000 0.000000 -9.325357 -10.724207 80.369093 -64.086240 -57.303945 -37.761169 -23.180379 1.369417 -12.275129 0.000000 0.000000 0.000000 7.125000 0.000000 0.000000 2.810984 16.673848 1.888533
7.131011 17.848022 -12.646402 -3.368266 -27.121182 8.095835 0.000000 0.000000 0.000000 -10.013021 -4.032377 -20.047935 1.314208 7.261175 20.491394 -0.047971 4.225788 -3.316013 0.007573 -0.561917 -1.544095 0.000000 0.000000 0.000000 23.060639 4.622014 -6.625902 -1.249688 -7.087623 19.975278 -0.704003 -8.178033 -20.865822 -0.043568 -1.346991 3.704007 0.807325 -0.872837 3.353296 2.720046 -1.055446 -1.229020 2.411968 -0.518033 -3.108920 -17.394550 -12.894090 -8.992832 15.517481 -17.755916 13.667577 5.789137 -8.314376 8.728775 0.000000 0.000000 0.000000 0.039818 -0.757990 -62.362324 66.309266 -57.769266 39.636875 28.880851 -23.405630 -41.467186 0.000000 0.000000 0.000000 -7.125000 0.000000 0.000000 -14.102826 74.860349 9.975719 0.000000 0.000000 0.000000 -9.392344 -9.774331 79.928335 -64.224286 -57.334348 -37.877339 -22.884761 1.293092 -12.479650 0.000000 0.000000 0.000000 7.125000 0.000000 0.000000 3.025914 16.483751 2.045865
7.114692 17.839843 -12.622971 -3.466730 -27.610763 8.011237 0.000000 0.000000 0.000000 -9.792839 -4.475158 -18.791888 1.230059 7.033436 19.814739 -0.052138 4.486455 -3.701652 0.007086 -0.543489 -1.493502 0.000000 0.000000 0.000000 23.142536 4.953684 -6.289834 -1.255992 -7.104703 20.026021 -0.719011 -8.101143 -20.946610 -0.045143 -1.371338 3.771211 0.931044 -0.748699 3.004209 2.751004 -0.892857 -1.229527 2.358370 -0.439953 -2.919808 -17.355684 -12.887979 -9.010949 15.317539 -17.706839 13.652344 5.722566 -8.302395 8.692944 0.000000 0.000000 0.000000 -0.089399 -0.454785 -62.491592 65.247444 -57.553187 38.739739 27.047996 -22.496794 -41.436571 0.000000 0.000000 0.000000 -7.125000 0.000000 0.000000 -16.798847 74.164123 11.656414 0.000000 0.000000 0.000000 -9.400099 -8.867865 79.291577 -64.198998 -57.328792 -37.856015 -22.524777 0.685185 -12.597762 0.000000 0.000000 0.000000 7.125000 0.000000 0.000000 3.280828 16.393367 2.225194
7.102497 17.830634 -12.590216 -3.601493 -28.136090 7.930432 0.000000 0.000000 0.000000 -9.619653 -5.027335 -17.329583 1.090026 6.634965 18.638393 -0.083013 5.364428 -3.727338 0.010875 -0.671907 -1.846360 0.000000 0.000000 0.000000 23.223163 5.193419 -5.933889 -1.257145 -7.107908 20.035525 -0.736751 -7.934960 -20.979141 -0.044172 -1.357073 3.731866 1.029462 -0.637640 2.652560 2.831708 -0.748221 -1.254835 2.373385 -0.369679 -2.752947 -17.363392 -12.846165 -8.959295 15.151910 -17.607020 13.551403 5.687902 -8.271061 8.615544 0.000000 0.000000 0.000000 -0.276662 -0.072742 -62.370287 64.548579 -57.404921 38.150440 25.094999 -22.205237 -41.483211 0.000000 0.000000 0.000000 -7.125000 0.000000 0.000000 -19.653976 73.503070 13.397197 0.000000 0.000000 0.000000 -9.452740 -7.971832 78.617911 -64.111176 -57.309474 -37.782145 -22.191272 -0.686560 -12.555304 0.000000 0.000000 0.000000 7.125000 0.000000 0.000000 3.509999 16.472225 2.375176
7.092906 17.822454 -12.553739 -3.785294 -28.605185 7.896369 0.000000 0.000000 0.000000 -9.513197 -5.404084 -16.081545 0.952710 6.215331 17.410694 -0.142822 6.718961 -3.196895 0.027328 -1.062491 -2.920841 0.000000 0.000000 0.000000 23.338134 5.367635 -5.577966 -1.249741 -7.087765 19.975650 -0.750927 -7.766368 -20.978299 -0.042290 -1.326765 3.648373 1.136784 -0.560576 2.287033 2.931606 -0.649452 -1.297834 2.406708 -0.322100 -2.594889 -17.363475 -12.763763 -8.857550 15.050061 -17.462174 13.369180 5.684671 -8.217327 8.500719 0.000000 0.000000 0.000000 -0.387748 0.330779 -62.109660 64.441352 -57.381729 38.060165 23.442362 -22.845628 -41.455656 0.000000 0.000000 0.000000 -7.125000 0.000000 0.000000 -21.830692 72.891636 14.630932 0.000000 0.000000 0.000000 -9.407648 -7.189212 77.850631 -63.847221 -57.250827 -37.560086 -21.937926 -2.789520 -12.433170 0.000000 0.000000 0.000000 7.125000 0.000000 0.000000 3.680516 16.627426 2.478601
